<svg width="500" height="500" viewBox="0 0 500 500" fill="none" xmlns="http://www.w3.org/2000/svg">
<path d="M253.742 477.61C383.692 477.61 489.037 416.789 489.037 341.762C489.037 266.735 383.692 205.914 253.742 205.914C123.792 205.914 18.4473 266.735 18.4473 341.762C18.4473 416.789 123.792 477.61 253.742 477.61Z" fill="#F5F5F5"/>
<path d="M408.883 408.38C445.747 408.38 475.631 391.127 475.631 369.843C475.631 348.56 445.747 331.306 408.883 331.306C372.019 331.306 342.135 348.56 342.135 369.843C342.135 391.127 372.019 408.38 408.883 408.38Z" fill="#E0E0E0"/>
<path d="M239.95 390.631L164.652 347.144L250.72 297.454L326.029 340.933L239.95 390.631Z" fill="#E0E0E0"/>
<path d="M34.9102 377.176L132.029 433.248L213.492 386.232L116.373 330.16L34.9102 377.176Z" fill="#E0E0E0"/>
<path d="M178.516 113.629V108.114H178.513C178.496 107.59 178.128 107.057 177.409 106.644L144.089 87.5218C142.675 86.7098 140.381 86.7098 138.967 87.5218L43.1813 142.492C42.4613 142.905 42.0943 143.438 42.0773 143.962H42.0723V149.477H42.0773C42.0943 150.001 42.4623 150.534 43.1813 150.947L76.5003 170.068C77.9143 170.88 80.2083 170.88 81.6223 170.068L177.408 115.098C178.128 114.685 178.495 114.152 178.512 113.628L178.516 113.629Z" fill="#F0F0F0"/>
<path d="M43.1816 145.433L76.5006 164.554C77.9156 165.366 80.2086 165.366 81.6226 164.554L177.409 109.583C178.824 108.771 178.824 107.455 177.409 106.643L144.09 87.5228C142.676 86.7108 140.382 86.7108 138.968 87.5228L43.1816 142.493C41.7676 143.305 41.7676 144.621 43.1816 145.433Z" fill="#FAFAFA"/>
<path d="M79.0574 165.168V170.683C78.1344 170.683 77.2124 170.471 76.5024 170.072L43.1784 150.952C42.4564 150.541 42.0904 150 42.0784 149.482H42.0664V143.967H42.0784C42.0864 143.757 42.1684 143.547 42.2884 143.342C41.9014 144.053 42.1924 144.871 43.1784 145.437L76.5024 164.556C77.2004 164.968 78.1354 165.168 79.0574 165.168Z" fill="#E0E0E0"/>
<path d="M96.959 118.53L125.189 134.624L171.825 107.86L143.598 91.7639L96.959 118.53Z" fill="#E0E0E0"/>
<path d="M125.512 133.4L98.2798 117.772C98.9908 115.753 98.9378 113.398 98.1328 110.71L125.191 126.172C125.191 126.172 125.707 127.878 125.512 133.4Z" fill="white"/>
<path d="M123.8 123.967C125.245 124.796 126.416 126.813 126.416 128.472V133.735C126.416 135.394 125.245 136.066 123.8 135.237L96.962 119.835L96.959 118.531L123.438 133.631C124.305 134.129 125.007 133.725 125.006 132.73L124.981 127.853C124.98 126.858 124.276 125.648 123.409 125.15L96.961 110.043V108.565L123.8 123.967Z" fill="#EBEBEB"/>
<path d="M96.9629 108.568L143.6 81.804L170.435 97.204C171.879 98.033 173.051 100.051 173.051 101.709L173.052 106.972C173.051 107.798 172.761 108.381 172.285 108.654L125.648 135.418C126.124 135.145 126.414 134.562 126.416 133.736L126.42 128.469C126.42 126.811 125.248 124.793 123.804 123.964L96.9629 108.568Z" fill="#FAFAFA"/>
<path d="M125.652 125.907C126.125 126.722 126.419 127.641 126.418 128.47L126.414 133.737C126.412 134.563 126.123 135.145 125.646 135.419L172.283 108.655C172.759 108.382 173.049 107.799 173.05 106.973L173.049 101.71C173.049 100.881 172.756 99.962 172.282 99.147L125.652 125.907Z" fill="#F0F0F0"/>
<path d="M68.2562 78.4768L67.9922 82.0408L99.5092 98.9468L100.22 96.8718L68.2562 78.4768Z" fill="#EBEBEB"/>
<path d="M99.8019 97.698L69.2719 80.075L63.9629 83.14L95.0929 101.352L99.8019 97.698Z" fill="white"/>
<path d="M89.3598 99.4648L86.3418 134.843C86.3418 135.566 86.8468 136.442 87.4708 136.804L105.182 147.054C105.439 147.202 105.766 147.289 106.101 147.315L95.0938 102.504C94.7578 102.478 94.4318 102.395 94.1748 102.247L92.8988 101.506L89.3598 99.4648Z" fill="#E0E0E0"/>
<path d="M96.4398 102.247L99.5957 99.5429L101.916 97.5559C102.153 97.1779 102.429 96.8959 102.281 96.5869L113.14 141.076L113.157 141.111C113.31 141.425 113.349 142.124 112.922 142.368L107.447 147.055C107.077 147.269 106.576 147.356 106.101 147.316L95.0938 102.505C95.5687 102.543 96.0698 102.456 96.4398 102.247Z" fill="#F0F0F0"/>
<path d="M101.917 96.2479C102.542 96.6089 102.387 97.0119 101.917 97.5549L96.4398 102.245C95.8148 102.606 94.8008 102.606 94.1758 102.245L89.3598 99.4639C88.7348 99.1029 88.6238 98.5819 89.1128 98.2999C89.6018 98.0179 90.5048 98.0819 91.1298 98.4429L94.9298 100.637C95.1378 100.757 95.4758 100.757 95.6848 100.637L99.6868 97.1619C99.8948 97.0419 99.8948 96.8469 99.6868 96.7259L68.2578 78.4769L69.7638 77.6079L101.917 96.2479Z" fill="#FAFAFA"/>
<path d="M59.1582 80.186L89.1892 97.535V154.667L59.1582 137.322V80.186Z" fill="#EBEBEB"/>
<path d="M88.2227 98.483L59.1577 81.803C57.6607 83.534 55.4407 84.742 52.5117 85.436L81.3297 102.044C81.3297 102.044 83.1917 101.61 88.2227 98.483Z" fill="white"/>
<path d="M78.5376 101.946C80.0796 102.831 82.5806 102.831 84.1236 101.946L89.0176 99.1369C90.5596 98.2519 90.5596 96.8169 89.0176 95.9319L60.3726 79.4929L59.1586 80.1859L87.3316 96.4569C88.2566 96.9879 88.2566 97.8489 87.3306 98.3789L82.7826 100.959C81.8566 101.489 80.3556 101.489 79.4306 100.958L51.2666 84.7179L49.8926 85.5059L78.5376 101.946Z" fill="#FAFAFA"/>
<path d="M49.8965 85.5049V142.638L78.5385 159.075C80.0805 159.96 82.5825 159.96 84.1235 159.075L89.0185 156.267C89.7855 155.825 90.1725 155.248 90.1725 154.664V97.5319C90.1725 98.1149 89.7855 98.6919 89.0185 99.1349L84.1235 101.949C82.5815 102.834 80.0795 102.834 78.5385 101.949L49.8965 85.5049Z" fill="#EBEBEB"/>
<path d="M81.3301 102.612C82.3411 102.612 83.3521 102.391 84.1231 101.949L89.0181 99.135C89.7851 98.693 90.1721 98.116 90.1721 97.532V154.665C90.1721 155.248 89.7851 155.825 89.0181 156.268L84.1231 159.076C83.3521 159.518 82.3411 159.739 81.3301 159.739V102.612Z" fill="#F0F0F0"/>
<path d="M323.008 309.956C322.327 297.972 317.02 273.98 324.013 251.842C327.567 240.59 335.73 228.668 347.884 225.309C352.183 224.12 357.499 224.278 359.614 229.178C359.969 230.001 360.168 230.889 360.232 231.783C360.496 235.506 358.804 238.8 356.921 241.842C352.616 248.799 347.146 254.976 342.783 261.897C340.47 265.566 338.488 269.417 336.773 273.387" stroke="url(#paint0_linear_1073_18502)" stroke-width="0.8828" stroke-miterlimit="10"/>
<path d="M322.722 317.788C322.722 319.225 323.101 321.026 322.783 322.398C322.687 322.812 322.602 323.263 322.779 323.649C322.957 324.035 323.515 324.263 323.821 323.968C324.042 323.755 324.274 322.211 324.416 321.818C324.719 320.982 325.178 320.17 325.571 319.373C326.367 317.756 327.216 316.165 328.114 314.603C329.968 311.381 332.034 308.281 334.295 305.33C338.747 299.518 343.953 294.281 349.763 289.823C356.067 284.985 363.042 281.058 369.206 276.042C371.022 274.564 372.832 272.896 373.612 270.688C374.776 267.39 373.231 263.538 370.49 261.365C367.749 259.193 364.063 258.507 360.575 258.765C357.237 259.012 352.741 260.449 349.051 262.459C341.531 266.555 336.364 272.9 332.231 280.086C326.715 289.675 323.575 300.594 322.722 311.602C322.722 313.664 322.722 315.726 322.722 317.788Z" stroke="url(#paint1_linear_1073_18502)" stroke-width="0.8828" stroke-miterlimit="10"/>
<path d="M365.65 264.752C351.419 268.827 330.326 285.169 322.723 315.506" stroke="url(#paint2_linear_1073_18502)" stroke-width="0.8828" stroke-miterlimit="10" stroke-linecap="round" stroke-linejoin="round"/>
<path d="M351.015 231.792C343.333 237.906 324.989 257.272 322.676 288.578" stroke="url(#paint3_linear_1073_18502)" stroke-width="0.8828" stroke-miterlimit="10" stroke-linecap="round" stroke-linejoin="round"/>
<path d="M319.896 165.091L264.293 133.035C263.113 132.354 262.044 132.289 261.271 132.736C260.553 133.151 257.987 134.638 257.266 135.047C256.485 135.49 256.002 136.451 256.002 137.821L256.003 289.986C256.003 292.712 257.917 296.026 260.277 297.389L315.879 329.445C317.059 330.127 318.128 330.191 318.901 329.744C319.619 329.329 322.202 327.843 322.925 327.422C323.694 326.974 324.17 326.018 324.17 324.659V172.494C324.17 169.768 322.257 166.454 319.896 165.091Z" fill="#382626"/>
<path d="M268.03 292.606L264.021 294.921L264.022 307.576C264.022 308.257 264.501 309.086 265.091 309.427L266.964 310.508C267.554 310.849 268.51 310.849 269.1 310.508L270.972 309.427C271.562 309.086 272.221 308.288 272.445 307.644L276.052 297.236L268.03 292.606Z" fill="#382626"/>
<path d="M264.021 307.576C264.021 308.257 264.499 309.086 265.09 309.427L266.962 310.508C267.552 310.849 268.211 310.603 268.434 309.959L272.041 299.55L264.021 294.92V307.576Z" fill="#4F3737"/>
<path d="M308.125 315.704L304.115 318.019L304.116 330.674C304.116 331.355 304.594 332.184 305.185 332.525L307.057 333.606C307.647 333.947 308.604 333.947 309.194 333.606L311.066 332.525C311.656 332.184 312.315 331.386 312.538 330.742L316.145 320.333L308.125 315.704Z" fill="#382626"/>
<path d="M304.116 330.675C304.116 331.356 304.594 332.185 305.184 332.526L307.056 333.607C307.646 333.948 308.305 333.702 308.528 333.058L312.135 322.649L304.115 318.019L304.116 330.675Z" fill="#4F3737"/>
<path d="M260.561 135.426L316.164 167.482C318.525 168.845 320.438 172.159 320.438 174.885V327.05C320.438 328.413 319.96 329.37 319.186 329.817C318.413 330.264 317.344 330.199 316.164 329.518L260.562 297.462C258.201 296.099 256.288 292.785 256.288 290.059L256.287 137.894C256.287 136.524 256.771 135.563 257.551 135.12C258.323 134.681 259.387 134.749 260.561 135.426Z" fill="#4F3737"/>
<path d="M179.822 343.479L239.964 378.202L324.162 329.59L320.153 327.275L260.011 292.552L179.822 338.849V343.479Z" fill="#644546"/>
<path d="M239.965 378.202V373.572L324.163 324.96V329.59L239.965 378.202Z" fill="#382626"/>
<path d="M240.037 371.257C251.285 354.24 250.659 324.154 249.692 319.076C249.692 319.076 254.437 350.88 260.28 359.962" stroke="#FAFAFA" stroke-width="0.7403" stroke-miterlimit="10"/>
<path d="M251.695 330.633C253.626 339.905 275.565 346.45 275.565 346.45" stroke="#FAFAFA" stroke-width="0.7403" stroke-miterlimit="10"/>
<path d="M249.533 339.855C250.152 338.35 253.201 338.141 253.781 340.587C253.781 340.587 254.133 336.085 256.671 337.361" stroke="#FAFAFA" stroke-width="0.7403" stroke-miterlimit="10"/>
<path d="M248.664 346.449C249.793 344.029 253.954 342.701 255.782 348.437C255.782 348.437 256.058 338.171 262.848 341.257" stroke="#FAFAFA" stroke-width="0.7403" stroke-miterlimit="10"/>
<path d="M246.73 355.538C249.11 350.957 255.639 349.128 257.317 353.353C257.356 348.137 263.327 341.561 270.616 344.725" stroke="#FAFAFA" stroke-width="0.7403" stroke-miterlimit="10"/>
<path d="M242.697 366.568C245.492 361.491 252.343 352.329 258.319 356.021" stroke="#FAFAFA" stroke-width="0.7403" stroke-miterlimit="10"/>
<path d="M316.141 278.663L316.145 283.291L239.962 327.276L179.82 292.552V287.923L256.002 243.941L316.141 278.663Z" fill="#382626"/>
<path d="M316.141 278.663L239.962 322.645L179.82 287.923L256.002 243.941L316.141 278.663Z" fill="#644546"/>
<path d="M316.141 227.736L316.145 232.363L239.962 276.348L179.82 241.624V236.995L256.002 193.013L316.141 227.736Z" fill="#382626"/>
<path d="M316.141 227.736L239.962 271.717L179.82 236.995L256.002 193.013L316.141 227.736Z" fill="#644546"/>
<path d="M239.705 211.334L184.102 179.278C182.922 178.597 181.853 178.532 181.08 178.979C180.362 179.394 177.796 180.881 177.075 181.29C176.294 181.733 175.811 182.694 175.811 184.064L175.812 336.229C175.812 338.955 177.726 342.269 180.086 343.632L235.688 375.688C236.868 376.369 237.937 376.434 238.71 375.987C239.428 375.572 242.011 374.086 242.734 373.665C243.503 373.217 243.979 372.261 243.979 370.902V218.737C243.98 216.011 242.066 212.697 239.705 211.334Z" fill="#382626"/>
<path opacity="0.2" d="M239.963 234.685L243.98 232.37V218.473L239.951 220.792L239.963 234.685Z" fill="black"/>
<path opacity="0.2" d="M320.164 188.392L324.181 186.077V172.18L320.152 174.499L320.164 188.392Z" fill="black"/>
<path d="M187.839 338.849L183.83 341.164L183.831 353.819C183.831 354.5 184.309 355.329 184.899 355.67L186.771 356.751C187.361 357.092 188.318 357.092 188.908 356.751L190.78 355.67C191.37 355.329 192.029 354.531 192.253 353.887L195.86 343.479L187.839 338.849Z" fill="#382626"/>
<path d="M183.831 353.819C183.831 354.5 184.309 355.329 184.899 355.67L186.771 356.751C187.361 357.092 188.02 356.846 188.243 356.202L191.85 345.794L183.83 341.164L183.831 353.819Z" fill="#4F3737"/>
<path d="M227.935 361.948L223.926 364.263L223.927 376.918C223.927 377.599 224.405 378.428 224.995 378.769L226.867 379.85C227.457 380.191 228.414 380.191 229.004 379.85L230.876 378.769C231.466 378.428 232.125 377.63 232.349 376.986L235.956 366.577L227.935 361.948Z" fill="#382626"/>
<path d="M223.927 376.918C223.927 377.6 224.405 378.428 224.995 378.769L226.867 379.85C227.457 380.191 228.116 379.945 228.339 379.301L231.946 368.893L223.926 364.263L223.927 376.918Z" fill="#4F3737"/>
<path d="M180.087 181.596L235.689 213.652C238.05 215.015 239.964 218.329 239.964 221.055V373.22C239.964 374.583 239.964 378.202 239.964 378.202C239.964 378.202 236.869 376.369 235.689 375.688L180.087 343.632C177.727 342.269 175.813 338.955 175.813 336.229L175.812 184.064C175.812 182.694 176.295 181.733 177.076 181.29C177.848 180.851 178.913 180.918 180.087 181.596Z" fill="#4F3737"/>
<path opacity="0.2" d="M235.689 213.652L180.087 181.596C178.913 180.918 177.849 180.851 177.076 181.29C176.295 181.733 175.812 182.694 175.812 184.064V197.648L239.964 234.686V221.056C239.964 218.329 238.049 215.015 235.689 213.652Z" fill="black"/>
<path d="M268.029 206.903L312.133 181.439L312.134 227.736" stroke="#FAFAFA" stroke-width="0.7403" stroke-miterlimit="10" stroke-linecap="round" stroke-linejoin="round"/>
<path d="M304.115 216.162L312.134 181.439L296.096 209.217" stroke="#FAFAFA" stroke-width="0.7403" stroke-miterlimit="10" stroke-linecap="round" stroke-linejoin="round"/>
<path d="M312.133 181.439L288.076 204.587" stroke="#FAFAFA" stroke-width="0.7403" stroke-miterlimit="10" stroke-linecap="round" stroke-linejoin="round"/>
<path d="M312.134 220.349C312.144 213.857 304.73 213.498 304.73 213.498C305.184 211.531 304.691 208.374 302.3 206.331C299.909 204.288 298.293 205.41 297.811 206.246C297.811 206.246 298.313 200.28 293.154 199.702C293.154 199.702 296.574 193.392 293.154 192.397" stroke="#FAFAFA" stroke-width="0.7403" stroke-miterlimit="10" stroke-linecap="round" stroke-linejoin="round"/>
<path d="M312.133 210.374C311.871 207.053 309.331 202.829 306.723 204.866C306.723 204.866 307.412 197.619 302.243 198.569C302.243 198.569 304.666 191.847 299.586 193.512C299.586 193.512 303.246 188.884 300.408 188.208" stroke="#FAFAFA" stroke-width="0.7403" stroke-miterlimit="10" stroke-linecap="round" stroke-linejoin="round"/>
<path d="M333.674 165.24C333.681 164.348 333.097 163.455 331.915 162.773L272.302 128.355C269.942 126.992 266.114 126.992 263.754 128.355L172.066 181.291C170.884 181.973 170.3 182.866 170.307 183.759C170.314 184.587 170.314 187.561 170.307 188.389C170.3 189.281 170.884 190.174 172.066 190.856L231.679 225.273C234.039 226.636 237.867 226.636 240.227 225.273L331.915 172.337C333.097 171.655 333.681 170.762 333.674 169.869C333.667 169.042 333.667 166.068 333.674 165.24Z" fill="#4F3737"/>
<path d="M231.68 220.643L172.067 186.226C169.707 184.863 169.707 182.654 172.067 181.291L263.755 128.355C266.116 126.992 269.943 126.992 272.303 128.355L331.916 162.773C334.276 164.136 334.276 166.346 331.916 167.708L240.229 220.644C237.868 222.006 234.041 222.006 231.68 220.643Z" fill="#644546"/>
<path opacity="0.1" d="M320.153 179.124L292.089 213.847L243.981 241.629L243.973 223.106L320.153 179.124Z" fill="black"/>
<path opacity="0.1" d="M316.147 232.363L292.089 264.774L243.981 292.556L243.98 274.03L316.147 232.363Z" fill="black"/>
<path opacity="0.1" d="M316.146 283.293L292.088 315.703L243.98 343.485V324.956L316.146 283.293Z" fill="black"/>
<path d="M205.781 384.443L132.019 427.028L48.957 378.965L122.719 336.38L205.781 384.443Z" fill="url(#paint4_linear_1073_18502)"/>
<path opacity="0.5" d="M205.781 384.443L132.019 427.028L48.957 378.965L122.719 336.38L205.781 384.443Z" fill="black"/>
<path d="M122.72 278.654L122.719 336.38L48.957 378.965L48.958 321.239L122.72 278.654Z" fill="url(#paint5_linear_1073_18502)"/>
<path opacity="0.23" d="M122.72 278.654L122.719 336.38L48.957 378.965L48.958 321.239L122.72 278.654Z" fill="black"/>
<path d="M132.019 369.298V427.028L48.957 378.965L48.958 321.239L132.019 369.298Z" fill="url(#paint6_linear_1073_18502)"/>
<path opacity="0.38" d="M132.019 369.298V427.028L48.957 378.965L48.958 321.239L132.019 369.298Z" fill="black"/>
<path d="M205.781 326.712V384.443L122.719 336.38L122.72 278.654L205.781 326.712Z" fill="url(#paint7_linear_1073_18502)"/>
<path opacity="0.4" d="M205.781 326.712V384.443L122.719 336.38L122.72 278.654L205.781 326.712Z" fill="black"/>
<path d="M205.782 384.443V326.712L132.02 369.298V427.028L205.782 384.443Z" fill="url(#paint8_linear_1073_18502)"/>
<path opacity="0.23" d="M205.782 384.443V326.712L132.02 369.298V427.028L205.782 384.443Z" fill="black"/>
<path d="M122.721 278.654L122.824 246.694L205.681 294.814L205.782 326.712L122.721 278.654Z" fill="url(#paint9_linear_1073_18502)"/>
<path opacity="0.2" d="M122.721 278.654L122.824 246.694L205.681 294.814L205.782 326.712L122.721 278.654Z" fill="black"/>
<path d="M132.02 369.298L138.937 341.34L212.031 299.14L205.782 326.712L132.02 369.298Z" fill="url(#paint10_linear_1073_18502)"/>
<path opacity="0.3" d="M132.02 369.298L138.937 341.34L212.031 299.14L205.782 326.712L132.02 369.298Z" fill="black"/>
<path d="M48.9582 321.239L40.1602 292.241L113.921 249.655L122.72 278.654L48.9582 321.239Z" fill="url(#paint11_linear_1073_18502)"/>
<path opacity="0.1" d="M48.9582 321.239L40.1602 292.241L113.921 249.655L122.72 278.654L48.9582 321.239Z" fill="black"/>
<path d="M48.9585 321.239L31.6035 297.273L114.673 345.331L132.02 369.298L48.9585 321.239Z" fill="url(#paint12_linear_1073_18502)"/>
<path opacity="0.45" d="M48.9585 321.239L31.6035 297.273L114.673 345.331L132.02 369.298L48.9585 321.239Z" fill="black"/>
<g opacity="0.7">
<path d="M153.736 409.859C153.485 409.859 153.283 409.655 153.283 409.406V399.248C153.283 398.998 153.486 398.795 153.736 398.795C153.987 398.795 154.189 398.999 154.189 399.248V409.406C154.189 409.655 153.986 409.859 153.736 409.859Z" fill="white"/>
<path d="M152.409 402.766C152.349 402.766 152.288 402.754 152.229 402.729C151.999 402.63 151.893 402.362 151.993 402.132L153.607 398.405L155.406 400.484C155.57 400.673 155.549 400.96 155.36 401.125C155.171 401.284 154.884 401.268 154.721 401.079L153.866 400.091L152.826 402.494C152.751 402.663 152.585 402.766 152.409 402.766Z" fill="white"/>
<path d="M157.928 407.468C157.677 407.468 157.475 407.264 157.475 407.015V396.858C157.475 396.608 157.678 396.405 157.928 396.405C158.178 396.405 158.381 396.609 158.381 396.858V407.015C158.381 407.264 158.178 407.468 157.928 407.468Z" fill="white"/>
<path d="M156.602 400.375C156.542 400.375 156.481 400.363 156.422 400.338C156.192 400.239 156.086 399.971 156.186 399.741L157.799 396.017L159.598 398.092C159.762 398.281 159.742 398.568 159.552 398.731C159.362 398.896 159.078 398.875 158.913 398.687L158.058 397.699L157.019 400.102C156.943 400.272 156.777 400.375 156.602 400.375Z" fill="white"/>
</g>
<g opacity="0.7">
<path d="M141.651 416.753C141.474 416.753 141.306 416.71 141.156 416.625C140.811 416.428 140.613 416.032 140.613 415.536V414.293C140.613 414.043 140.816 413.84 141.066 413.84C141.317 413.84 141.519 414.044 141.519 414.293V415.536C141.519 415.722 141.57 415.818 141.605 415.837C141.638 415.862 141.745 415.851 141.901 415.759C142.301 415.525 142.744 414.627 142.744 413.71V408.51C142.744 408.26 142.947 408.057 143.197 408.057C143.448 408.057 143.65 408.261 143.65 408.51V413.71C143.65 414.893 143.096 416.11 142.36 416.542C142.124 416.682 141.879 416.753 141.651 416.753Z" fill="white"/>
<path d="M136.877 412.564V411.78C136.877 408.088 139.477 403.581 142.675 401.736C144.31 400.794 145.872 400.654 147.068 401.347C148.267 402.039 148.927 403.46 148.927 405.347V405.609L136.877 412.564ZM145.388 401.818C144.705 401.818 143.935 402.055 143.128 402.521C140.411 404.088 138.162 407.741 137.827 410.97L148.015 405.087C147.962 403.669 147.47 402.624 146.614 402.13C146.253 401.923 145.84 401.818 145.388 401.818Z" fill="white"/>
</g>
<path opacity="0.7" d="M31.6035 297.273L114.673 345.331L132.02 369.298L113.75 346.177L31.6035 297.273Z" fill="white"/>
<path opacity="0.7" d="M205.782 326.712L132.02 369.298V427.028L133.396 370.458L205.782 326.712Z" fill="white"/>
<path d="M97.5373 303.621C105.147 302.52 112.099 297.645 116.511 291.456C118.565 288.574 120.126 285.348 121.011 281.917C121.823 278.769 122.278 275.234 121.475 272.036C120.099 266.554 115.019 263.302 109.647 262.617C106.939 262.271 104.135 262.522 101.552 263.415C98.7993 264.366 96.5513 266.097 94.8554 268.461C93.9743 269.689 93.0513 271.215 93.0103 272.774C92.9743 274.131 93.9453 275.101 95.2483 275.323C96.8203 275.59 98.4793 274.919 99.8243 274.163C101.483 273.23 102.906 272.011 104.092 270.525C106.515 267.489 108.58 263.779 109.635 260.022C110.546 256.776 110.35 253.231 109.655 249.965C108.945 246.627 107.561 243.217 105.118 240.764C102.562 238.198 98.9083 236.929 95.3853 236.468C91.8103 236.001 88.0513 236.323 84.6393 237.503C83.1703 238.011 81.6533 238.689 80.5133 239.757C79.6553 240.561 78.6743 241.884 79.0253 243.178C79.4153 244.621 81.2744 245.053 82.5634 244.888C84.4454 244.646 86.2403 243.475 87.5733 242.175C89.0413 240.743 90.3633 238.995 91.3403 237.189C92.0603 235.857 92.5023 234.376 92.4713 232.852C92.3423 226.504 85.3364 222.404 79.8414 221.247C78.3504 220.933 76.8463 220.835 75.3293 220.949C74.8203 220.987 75.1303 221.787 75.5433 221.756C78.4283 221.539 81.3983 222.406 83.9583 223.683C86.4413 224.922 88.8043 226.755 90.1693 229.216C91.5443 231.694 91.3843 234.543 89.9353 236.953C88.9433 238.603 87.7414 240.278 86.3134 241.576C85.1224 242.658 83.3333 243.904 81.6373 243.782C81.1403 243.746 80.5073 243.509 80.3193 242.956C80.0963 242.301 80.5933 241.54 80.9153 241.14C81.7253 240.134 82.9643 239.527 84.1433 239.004C87.0723 237.704 90.4523 237.281 93.6313 237.447C96.9053 237.619 100.312 238.461 102.973 240.455C105.473 242.329 106.944 245.23 107.834 248.164C108.753 251.196 109.139 254.514 108.71 257.666C108.273 260.876 106.745 263.949 105.084 266.688C103.233 269.741 100.91 272.653 97.4303 273.888C96.5703 274.193 94.7703 274.646 94.4263 273.391C94.0873 272.156 95.0674 270.608 95.7024 269.638C97.1464 267.433 99.0773 265.728 101.52 264.727C103.81 263.789 106.349 263.438 108.813 263.624C113.522 263.98 118.305 266.44 119.945 271.119C120.906 273.86 120.71 276.906 120.198 279.72C119.631 282.831 118.473 285.827 116.888 288.559C113.488 294.417 108.178 298.817 101.999 301.502C100.518 302.145 98.9813 302.681 97.4483 303.187C97.2863 303.246 97.3573 303.647 97.5373 303.621Z" fill="#E0E0E0"/>
<path d="M65.7475 216.799C61.6945 216.514 56.2375 219.659 58.1965 221.961C60.1565 224.263 65.3615 220.539 65.3615 220.539C65.3615 220.539 64.8704 225.191 66.5734 225.716C68.2754 226.241 70.5285 221.811 68.8705 218.975C68.8705 218.975 71.4265 220.109 73.8425 218.328C76.2585 216.547 73.6965 214.873 70.2865 215.171C70.2865 215.171 72.7264 207.196 67.7974 208.703C65.3624 209.448 64.4875 212.342 65.7475 216.799Z" fill="url(#paint13_linear_1073_18502)"/>
<path opacity="0.65" d="M65.7475 216.799C61.6945 216.514 56.2375 219.659 58.1965 221.961C60.1565 224.263 65.3615 220.539 65.3615 220.539C65.3615 220.539 64.8704 225.191 66.5734 225.716C68.2754 226.241 70.5285 221.811 68.8705 218.975C68.8705 218.975 71.4265 220.109 73.8425 218.328C76.2585 216.547 73.6965 214.873 70.2865 215.171C70.2865 215.171 72.7264 207.196 67.7974 208.703C65.3624 209.448 64.4875 212.342 65.7475 216.799Z" fill="white"/>
<path d="M69.4678 218.499C69.2508 218.281 69.0118 218.079 68.7678 217.891C68.4168 217.62 68.0518 217.365 67.6948 217.103C67.3538 216.853 66.9948 216.634 66.6238 216.432C66.4088 216.315 66.1888 216.206 65.9648 216.108C65.6188 215.957 65.3198 215.901 64.9398 215.949C64.5868 215.994 64.2738 216.395 64.5378 216.73C64.8528 217.13 65.2388 217.207 65.5878 217.387C65.7708 217.481 65.9508 217.581 66.1278 217.685C66.4948 217.9 66.8308 218.151 67.1728 218.403C67.5138 218.654 67.8668 218.888 68.2028 219.145C68.7338 219.55 69.2738 219.955 69.9098 220.181C69.9668 220.201 70.0408 220.191 70.0848 220.148C70.5068 219.743 69.7618 218.794 69.4678 218.499Z" fill="#644546"/>
<path d="M388.285 106.793C383.91 112.67 378.064 145.002 375.854 155.366C365.222 155.058 351.003 154.563 345.617 153.996C339.652 153.368 326.81 152.141 320.524 152.964C304.915 155.008 305.535 165.223 305.898 167.894C306.314 170.963 308.503 172.357 316.856 170.451C318.727 170.024 320.659 169.815 322.577 169.776C323.394 169.76 325.098 169.371 325.737 170.062C326.697 171.1 323.853 172.737 323.131 173.202C322.019 173.92 320.861 174.829 320.626 176.131C320.539 176.614 320.631 177.189 321.044 177.455C321.409 177.69 321.886 177.605 322.308 177.505C326.137 176.6 329.845 175.189 333.307 173.319C334.65 172.593 335.969 171.793 337.422 171.324C339.592 170.623 341.826 171.041 344.014 171.041C348.7 171.041 373.487 173.494 384.506 174.616C392.136 175.393 392.951 167.854 395.579 160.232C398.848 150.752 406.5 100.979 406.5 100.979C398.785 99.8781 393.483 99.8121 388.285 106.793Z" fill="#FFA8A7"/>
<path d="M406.617 100.219C402.925 99.5432 394.63 98.5082 390.104 103.557C385.578 108.606 384.512 113.914 382.52 121.552C380.529 129.19 377.033 142.913 377.033 142.913C377.033 142.913 382.859 151.278 401.112 148.908L406.617 100.219Z" fill="#4F3737"/>
<path d="M452.448 364.64L439.616 364.653L435.932 336.795L452.121 336.16L452.448 364.64Z" fill="#FFA8A7"/>
<path d="M409.855 350.734C407.666 354.515 400.662 354.208 394.817 352.869L394.145 325.487L411.305 324.814L409.855 350.734Z" fill="#FFA8A7"/>
<path d="M451.575 188.662C452.039 200.508 450.473 270.581 450.473 270.581C450.895 273.979 454.415 279.91 455.151 292.178C456.219 309.968 452.585 348.025 452.585 348.025C452.585 348.025 445.237 351.866 437.32 348.926C437.32 348.926 429.255 293.89 426.341 276.353C423.798 261.048 420.534 220.01 420.534 220.01L414.204 272.614C414.204 272.614 415.975 280.932 415.639 291.502C415.379 299.677 410.72 339.397 410.72 339.397C410.72 339.397 402.899 342.327 394.303 339.793C394.303 339.793 390.477 278.151 390.04 270.677C389.542 262.156 389.883 186.95 389.883 186.95L451.575 188.662Z" fill="url(#paint14_linear_1073_18502)"/>
<path opacity="0.2" d="M420.535 220.01C420.535 220.01 409.327 216.834 401.689 210.011C401.689 210.011 405.267 216.121 415.407 221.541L414.826 267.452L420.535 220.01Z" fill="black"/>
<path d="M424.954 387.873C424.539 388.294 424.778 391.058 425.282 391.785C425.823 392.565 428.845 394.944 434.149 395.116C439.217 395.28 443.703 394.421 446.596 392.421C449.489 390.421 450.844 388.287 451.01 385.397C451.176 382.507 450.747 379.743 452.033 377.473C453.22 375.377 455.149 372.992 455.545 371.866C456.407 369.415 455.349 366.001 455.349 366.001L424.954 387.873Z" fill="#382626"/>
<path d="M437.801 362.198C437.809 363.318 437.652 364.345 437.344 365.426C436.699 367.687 435.668 369.832 434.497 371.88C433.894 372.934 433.254 373.972 432.506 374.936C431.049 376.815 429.209 378.383 427.659 380.191C426.109 381.999 424.817 384.169 424.782 386.517C424.722 390.489 429.077 391.667 432.412 392.127C435.973 392.618 439.741 392.281 443.154 391.165C446.952 389.923 449.607 386.839 450.094 382.982C450.234 381.874 450.122 380.752 450.209 379.639C450.407 377.101 451.624 374.742 453.02 372.583C453.83 371.331 454.715 370.105 455.237 368.716C456.175 366.222 455.238 363.494 454.481 361.076C453.827 358.988 453.095 356.624 452.36 356.852C452.359 357.958 452.404 358.06 451.648 358.833C450.692 359.81 450.704 361.223 449.687 362.093C450.128 360.788 450.138 360.241 450.313 359.245C450.365 358.947 450.262 358.351 450.046 358.133C449.755 357.84 449.274 357.669 448.803 357.53C447.223 357.064 445.592 356.761 443.947 356.624C442.444 356.498 440.719 356.383 439.249 356.774C438.797 356.894 438.362 357.129 438.095 357.503C437.814 357.897 437.773 358.238 437.727 358.874C437.68 359.51 437.794 361.144 437.801 362.198Z" fill="#644546"/>
<path d="M433.995 372.732C435.428 371.569 438.734 371.424 440.55 371.547C442.824 371.701 444.689 372.423 445.76 373.149C446.235 373.471 446.878 373.387 447.269 372.97C447.739 372.469 447.663 371.677 447.091 371.29C445.956 370.521 443.914 369.457 441.223 369.373C436.761 369.234 435.485 370.048 435.485 370.048C435.485 370.048 433.507 371.435 433.995 372.732Z" fill="#F5F5F5"/>
<path d="M430.76 376.926C432.573 375.756 436.217 375.772 438.033 375.895C440.307 376.049 442.035 376.873 443.107 377.6C443.582 377.922 444.225 377.838 444.616 377.421C445.086 376.92 445.01 376.128 444.438 375.741C443.303 374.972 441.129 373.743 438.438 373.659C433.976 373.52 432.852 374.474 432.852 374.474C432.852 374.474 431.003 375.275 430.76 376.926Z" fill="#F5F5F5"/>
<path d="M442.828 365.045C439.741 364.848 438.45 365.243 437.252 365.734C436.485 366.204 436.017 367.463 436.534 367.757C437.503 367.168 439.277 366.87 441.466 366.882C442.935 366.89 444.805 367.411 446.33 368.015C446.717 368.169 447.177 368.388 447.58 368.591C448.124 368.865 448.792 368.629 449.027 368.078C449.225 367.611 449.043 367.071 448.592 366.822C447.491 366.214 445.323 365.204 442.828 365.045Z" fill="#F5F5F5"/>
<path d="M365.535 367.805C365.074 368.661 365.118 370.309 365.565 371.374C366.013 372.439 371.307 375.765 378.667 375.618C386.028 375.472 391.207 372.755 394.092 371.036C396.977 369.317 399.906 369.109 403.549 369.074C407.192 369.038 412.049 367.454 412.927 365.792C413.805 364.131 413.027 361.16 413.027 361.16L365.535 367.805Z" fill="#382626"/>
<path d="M396.231 346.312C396.042 346.262 395.85 346.213 395.656 346.165C395.34 346.086 395.011 346.007 394.691 346.067C394.327 346.135 394.02 346.375 393.756 346.635C392.926 347.455 392.398 348.524 391.742 349.489C390.085 351.925 386.758 353.849 383.142 355.577C380.684 356.752 378.288 357.639 375.76 358.635C373.182 359.651 369.798 360.185 367.76 361.423C364.788 363.227 364.185 368.085 367.374 370.166C370.125 371.961 377.485 374.115 385.4 372.274C389.711 371.271 394.649 366.95 400.254 366.778C403.818 366.669 410.58 365.99 412.994 363.403C413.896 362.247 412.948 358.402 412.177 355.086C411.336 351.466 411.719 346.047 410.105 346.11L410.004 347.919C409.854 348.462 408.578 348.991 408.184 349.407C407.703 349.915 407.222 350.422 406.741 350.93C406.111 351.594 405.459 352.275 404.624 352.649C403.186 353.292 401.521 352.909 399.996 352.515C399.926 352.497 400.766 349.732 400.85 349.464C400.919 349.245 400.994 349.012 400.935 348.79C400.874 348.566 400.688 348.4 400.504 348.257C399.179 347.231 397.785 346.725 396.231 346.312Z" fill="#644546"/>
<path d="M386.551 353.803C386.551 353.803 387.126 352.465 389.257 352.172C390.887 351.948 393.684 353.274 395.389 354.82C396.087 355.453 395.938 356.584 395.093 357C394.59 357.247 393.993 357.148 393.588 356.76C392.473 355.693 389.952 353.73 386.551 353.803Z" fill="#F5F5F5"/>
<path d="M381.41 356.369C381.41 356.369 382.531 354.787 384.594 354.916C384.594 354.916 388.807 355.238 391.303 357.796C391.94 358.449 391.843 359.503 391.024 359.904C390.537 360.142 389.962 360.045 389.575 359.666C388.448 358.559 386.194 356.239 381.41 356.369Z" fill="#F5F5F5"/>
<path d="M375.762 358.634C375.762 358.634 376.995 357.212 379.058 357.341C379.058 357.341 382.982 357.675 385.478 360.233C386.115 360.886 386.018 361.94 385.199 362.341C384.712 362.579 384.136 362.483 383.75 362.103C382.623 360.997 380.546 358.504 375.762 358.634Z" fill="#F5F5F5"/>
<path d="M428.006 100.441C432.729 100.977 438.312 101.269 442.819 101.861C448.629 102.623 453.163 108.634 454.578 117.928C456.137 128.173 449.613 157.532 449.613 157.532L451.703 192.148C443.187 198.422 406.952 201.713 388.887 188.67C388.887 188.67 389.308 129.748 390.721 120.705C392.664 108.263 395.697 100.53 409.734 99.6382L428.006 100.441Z" fill="#644546"/>
<path d="M460.271 175.444C458.74 178.004 457.202 180.56 455.622 183.09C455.037 184.027 454.449 184.962 453.836 185.88C453.617 186.209 452.997 186.87 452.685 187.086C451.927 187.612 450.348 187.28 449.43 187.31C444.913 187.459 440.401 187.787 435.91 188.295C435.165 188.379 434.322 188.527 433.92 189.159C433.46 189.88 433.862 190.897 434.557 191.397C435.252 191.897 436.141 192.014 436.991 192.116C438.292 192.272 439.592 192.428 440.893 192.583C441.442 192.649 442.023 192.728 442.452 193.077C443.869 194.23 441.163 195.611 440.349 196.171C438.722 197.291 436.982 198.277 435.161 199.045C427.034 202.472 426.042 204.953 427.538 207.768C428.841 210.219 434.46 219.13 448.736 211.458C454.485 208.368 463.242 198.607 467.225 193.888C472.973 187.078 482.679 171.873 482.679 171.873C488.198 164.292 488.914 161.182 489.036 158.024C489.158 154.866 472.028 130.646 466.221 122.142C460.414 113.638 457.631 103.279 442.818 101.859C442.818 101.859 437.184 119.742 446.517 131.312L468.088 161.397C468.087 161.4 462.373 171.93 460.271 175.444Z" fill="#FFA8A7"/>
<path d="M475.914 133.706C473.149 129.705 470.259 125.587 467.465 121.508C455.722 104.362 456.704 101.222 439.767 100.98C438.268 103.285 437.374 113.177 439.634 123.119C441.533 131.473 448.605 137.359 448.605 137.359L457.09 148.851C457.09 148.851 462.279 148.692 468.502 144.129C474.725 139.566 475.914 133.706 475.914 133.706Z" fill="#4F3737"/>
<path d="M439.167 55.3751C435.97 50.9041 431.318 51.6741 431.318 51.6741L430.444 73.1441L429.027 81.0751L429.277 89.8981C429.277 89.8981 431.668 89.7791 433.112 86.9841C434.424 84.4441 438.074 72.1591 438.074 72.1591L438.058 72.1751C441.413 62.0941 440.706 57.5271 439.167 55.3751Z" fill="#382626"/>
<path d="M429.438 73.2401C429.857 71.8951 430.27 71.1371 431.509 69.8171C432.741 68.5041 437.641 67.0671 439.875 71.2291C442.151 75.4711 438.345 80.8811 435.446 82.5621C431.729 84.7171 429.551 81.7811 429.551 81.7811L429.637 101.547C427.909 105.523 420.097 109.111 415.456 108.521C411.752 108.05 408.339 105.135 411.648 100.895L411.383 95.2631C411.383 95.2631 406.435 96.2671 403.985 96.0121C399.908 95.5871 397.204 92.5211 395.759 88.2021C393.439 81.2651 392.409 75.6221 393.395 61.7041C394.476 46.4491 412.106 45.4161 421.928 50.9391C431.75 56.4601 429.438 73.2401 429.438 73.2401Z" fill="#FFA8A7"/>
<path d="M387.778 45.8891C387.331 42.5591 388.484 38.9881 391.968 37.8091C394.596 36.9161 397.293 36.9681 399.712 39.0971C400.576 36.7501 402.844 34.9841 405.331 34.7231C407.818 34.4621 410.404 35.7171 411.737 37.8331C412.79 36.3511 414.032 35.4581 415.757 35.0381C417.773 34.5481 420.267 35.0611 421.696 36.1161C423.125 37.1711 424.79 39.1631 424.368 41.6471C427.181 40.5221 430.109 41.4551 432.196 43.9431C433.447 45.4351 434.131 47.3661 434.188 49.3051C434.216 50.2491 434.157 51.4011 433.765 52.2781C433.358 53.1921 432.537 53.7891 432.303 54.8201C432.083 55.7881 431.635 56.6841 431.768 57.6591C431.997 59.3411 432.368 61.0131 432.589 62.7021C432.802 64.3311 432.992 65.9781 433.001 67.6231C433.005 68.4101 432.443 68.9671 431.787 69.5481C430.719 70.4951 430.479 70.9891 429.685 72.5991C429.331 73.3171 428.994 75.0941 428.298 75.5811C426.169 77.0681 425.933 72.2431 425.831 71.3191C425.728 70.3951 425.7 67.9771 425.876 64.9101C425.193 64.8661 422.381 64.8211 420.205 62.3021C419.495 61.4791 418.942 60.2271 418.797 59.1671C418.704 58.4851 418.601 57.8901 418.631 57.2061C417.246 59.5041 414.009 60.4451 411.714 60.2381C407.849 59.8901 406.526 58.2411 405.903 57.0241C405.619 58.1031 405.151 59.4831 404.368 60.2841C403.381 61.2941 402.065 61.9051 400.907 62.3001C398.752 63.0351 396.18 62.1101 394.591 60.4801C393.023 62.7321 389.044 61.7281 388.162 61.0941C386.141 59.6431 385.515 57.9211 385.295 55.4431C385.076 52.9651 386.073 50.1601 388.809 49.1871C388.289 48.1951 387.935 47.0571 387.778 45.8891Z" fill="#382626"/>
<path d="M411.383 95.263C411.383 95.263 420.325 92.995 423.4 91.16C425.458 89.932 427.102 87.898 427.551 86.625C427.551 86.625 427.092 89.334 425.324 91.842C423.161 94.909 411.503 97.666 411.503 97.666L411.383 95.263Z" fill="#F28F8F"/>
<path d="M411.88 72.5822C411.935 73.6942 412.847 74.5502 413.917 74.4932C414.987 74.4372 415.809 73.4912 415.754 72.3792C415.699 71.2682 414.787 70.4122 413.717 70.4682C412.648 70.5242 411.825 71.4712 411.88 72.5822Z" fill="#382626"/>
<path d="M408.886 87.0471C408.957 88.4781 410.131 89.5811 411.509 89.5081C412.887 89.4361 413.945 88.2171 413.874 86.7861C413.803 85.3551 412.629 84.2531 411.252 84.3251C409.874 84.3971 408.815 85.6161 408.886 87.0471Z" fill="#F28F8F"/>
<path d="M413.49 65.9232L417.609 67.9372C418.143 66.7562 417.654 65.3472 416.516 64.7912C415.379 64.2342 414.024 64.7412 413.49 65.9232Z" fill="#382626"/>
<path d="M395.568 67.6471L399.084 64.6501C398.286 63.6401 396.853 63.4931 395.882 64.3201C394.911 65.1481 394.77 66.6371 395.568 67.6471Z" fill="#382626"/>
<path d="M396.622 72.192C396.675 73.267 397.557 74.095 398.593 74.041C399.628 73.987 400.423 73.071 400.37 71.996C400.317 70.921 399.434 70.093 398.4 70.147C397.364 70.2 396.568 71.116 396.622 72.192Z" fill="#382626"/>
<path d="M405.901 69.9661L405.842 81.8001L399.576 80.0051L405.901 69.9661Z" fill="#F28F8F"/>
<path d="M390.19 86.519C390.303 86.494 390.406 86.427 390.475 86.323C390.617 86.11 390.56 85.821 390.347 85.679L384.912 82.058C384.698 81.916 384.41 81.974 384.268 82.187C384.126 82.4 384.183 82.689 384.396 82.831L389.831 86.452C389.941 86.525 390.07 86.546 390.19 86.519Z" fill="#E0E0E0"/>
<path d="M389.607 88.8569C389.776 88.8189 389.917 88.6889 389.959 88.5079C390.017 88.2579 389.861 88.0089 389.611 87.9499L383.25 86.4749C383.002 86.4159 382.75 86.5719 382.692 86.8229C382.634 87.0729 382.79 87.3219 383.04 87.3799L389.402 88.8549C389.471 88.8719 389.541 88.8709 389.607 88.8569Z" fill="#E0E0E0"/>
<path d="M383.702 93.0889C383.722 93.0839 383.742 93.0789 383.761 93.0719L389.893 90.8279C390.134 90.7399 390.258 90.4729 390.17 90.2319C390.081 89.9909 389.796 89.8709 389.574 89.9549L383.442 92.1979C383.201 92.2859 383.077 92.5529 383.165 92.7939C383.247 93.0169 383.479 93.1389 383.702 93.0889Z" fill="#E0E0E0"/>
<path d="M331.838 141.057C331.999 141.381 332.279 141.643 332.644 141.774C333.395 142.045 334.226 141.655 334.497 140.905L339.065 129.655C339.335 128.902 338.945 128.074 338.193 127.803C337.442 127.532 336.611 127.922 336.34 128.672L331.772 139.922C331.635 140.31 331.669 140.716 331.838 141.057Z" fill="#E0E0E0"/>
<path d="M324.333 141.04C324.573 141.524 325.074 141.852 325.65 141.844C326.449 141.832 327.087 141.175 327.076 140.376L326.931 126.342C326.923 125.548 326.263 124.903 325.463 124.916C324.664 124.927 324.026 125.585 324.037 126.384L324.182 140.418C324.185 140.64 324.24 140.853 324.333 141.04Z" fill="#E0E0E0"/>
<path d="M311.596 133.213C311.625 133.271 311.658 133.328 311.693 133.38L318.582 143.383C319.029 144.048 319.928 144.223 320.592 143.777C321.256 143.328 321.405 142.376 320.984 141.768L314.095 131.765C313.648 131.1 312.749 130.925 312.085 131.371C311.477 131.783 311.28 132.575 311.596 133.213Z" fill="#E0E0E0"/>
<defs>
<linearGradient id="paint0_linear_1073_18502" x1="320.439" y1="224.692" x2="385.819" y2="255.226" gradientUnits="userSpaceOnUse">
<stop stop-color="#FF4D4D"/>
<stop offset="1" stop-color="#FF0000"/>
</linearGradient>
<linearGradient id="paint1_linear_1073_18502" x1="322.676" y1="258.713" x2="386.194" y2="308.572" gradientUnits="userSpaceOnUse">
<stop stop-color="#FF4D4D"/>
<stop offset="1" stop-color="#FF0000"/>
</linearGradient>
<linearGradient id="paint2_linear_1073_18502" x1="322.723" y1="264.752" x2="372.773" y2="307.084" gradientUnits="userSpaceOnUse">
<stop stop-color="#FF4D4D"/>
<stop offset="1" stop-color="#FF0000"/>
</linearGradient>
<linearGradient id="paint3_linear_1073_18502" x1="322.676" y1="231.792" x2="368.053" y2="254.437" gradientUnits="userSpaceOnUse">
<stop stop-color="#FF4D4D"/>
<stop offset="1" stop-color="#FF0000"/>
</linearGradient>
<linearGradient id="paint4_linear_1073_18502" x1="48.957" y1="336.38" x2="127.506" y2="472.273" gradientUnits="userSpaceOnUse">
<stop stop-color="#FF4D4D"/>
<stop offset="1" stop-color="#FF0000"/>
</linearGradient>
<linearGradient id="paint5_linear_1073_18502" x1="48.957" y1="278.654" x2="144.708" y2="349.064" gradientUnits="userSpaceOnUse">
<stop stop-color="#FF4D4D"/>
<stop offset="1" stop-color="#FF0000"/>
</linearGradient>
<linearGradient id="paint6_linear_1073_18502" x1="48.957" y1="321.239" x2="151.726" y2="401.929" gradientUnits="userSpaceOnUse">
<stop stop-color="#FF4D4D"/>
<stop offset="1" stop-color="#FF0000"/>
</linearGradient>
<linearGradient id="paint7_linear_1073_18502" x1="122.719" y1="278.654" x2="225.487" y2="359.344" gradientUnits="userSpaceOnUse">
<stop stop-color="#FF4D4D"/>
<stop offset="1" stop-color="#FF0000"/>
</linearGradient>
<linearGradient id="paint8_linear_1073_18502" x1="132.02" y1="326.712" x2="227.773" y2="397.12" gradientUnits="userSpaceOnUse">
<stop stop-color="#FF4D4D"/>
<stop offset="1" stop-color="#FF0000"/>
</linearGradient>
<linearGradient id="paint9_linear_1073_18502" x1="122.721" y1="246.694" x2="202.683" y2="329.697" gradientUnits="userSpaceOnUse">
<stop stop-color="#FF4D4D"/>
<stop offset="1" stop-color="#FF0000"/>
</linearGradient>
<linearGradient id="paint10_linear_1073_18502" x1="132.02" y1="299.14" x2="201.576" y2="378.465" gradientUnits="userSpaceOnUse">
<stop stop-color="#FF4D4D"/>
<stop offset="1" stop-color="#FF0000"/>
</linearGradient>
<linearGradient id="paint11_linear_1073_18502" x1="40.1602" y1="249.655" x2="111.022" y2="331.382" gradientUnits="userSpaceOnUse">
<stop stop-color="#FF4D4D"/>
<stop offset="1" stop-color="#FF0000"/>
</linearGradient>
<linearGradient id="paint12_linear_1073_18502" x1="31.6035" y1="297.273" x2="99.8268" y2="392.389" gradientUnits="userSpaceOnUse">
<stop stop-color="#FF4D4D"/>
<stop offset="1" stop-color="#FF0000"/>
</linearGradient>
<linearGradient id="paint13_linear_1073_18502" x1="57.7852" y1="208.513" x2="75.0288" y2="225.519" gradientUnits="userSpaceOnUse">
<stop stop-color="#FF4D4D"/>
<stop offset="1" stop-color="#FF0000"/>
</linearGradient>
<linearGradient id="paint14_linear_1073_18502" x1="389.77" y1="186.95" x2="502.671" y2="232.349" gradientUnits="userSpaceOnUse">
<stop stop-color="#FF4D4D"/>
<stop offset="1" stop-color="#FF0000"/>
</linearGradient>
</defs>
</svg>
